<svg width="19" height="19" viewBox="0 0 19 19" fill="none" xmlns="http://www.w3.org/2000/svg">
<path fill-rule="evenodd" clip-rule="evenodd" d="M0.75 3.25C0.75 1.86929 1.86929 0.75 3.25 0.75H4.39302C5.11 0.75 5.73498 1.23796 5.90887 1.93354L6.83037 5.61952C6.98284 6.22942 6.75495 6.87129 6.25202 7.24849L5.174 8.057C5.06206 8.14096 5.03772 8.2639 5.06917 8.34974C6.01542 10.9329 8.0671 12.9846 10.6503 13.9308C10.7361 13.9623 10.859 13.9379 10.943 13.826L11.7515 12.748C12.1287 12.2451 12.7706 12.0172 13.3805 12.1696L17.0665 13.0911C17.762 13.265 18.25 13.89 18.25 14.607V15.75C18.25 17.1307 17.1307 18.25 15.75 18.25H13.875C6.62626 18.25 0.75 12.3737 0.75 5.125V3.25Z" fill="#CAFF33"/>
</svg>
